<?xml version="1.0" encoding="UTF-8"?>
<!DOCTYPE svg PUBLIC "-//W3C//DTD SVG 1.1//EN" "http://www.w3.org/Graphics/SVG/1.1/DTD/svg11.dtd">
<!-- Creator: CorelDRAW X6 -->
<svg xmlns="http://www.w3.org/2000/svg" xml:space="preserve" width="2480px" height="3508px" version="1.1" style="shape-rendering:geometricPrecision; text-rendering:geometricPrecision; image-rendering:optimizeQuality; fill-rule:evenodd; clip-rule:evenodd"
viewBox="0 0 2480 3507"
 xmlns:xlink="http://www.w3.org/1999/xlink">
 <defs>
  <style type="text/css">
   <![CDATA[
    .fil3 {fill:url(#id0);fill-rule:nonzero}
    .fil2 {fill:url(#id1);fill-rule:nonzero}
    .fil1 {fill:url(#id2);fill-rule:nonzero}
    .fil0 {fill:url(#id3);fill-rule:nonzero}
   ]]>
  </style>
  <linearGradient id="id0" gradientUnits="userSpaceOnUse" x1="1003.56" y1="1581.73" x2="1003.56" y2="1727.87">
   <stop offset="0" style="stop-color:#FFAF00"/>
   <stop offset="1" style="stop-color:#AB7500"/>
  </linearGradient>
  <linearGradient id="id1" gradientUnits="userSpaceOnUse" xlink:href="#id0" x1="1224.01" y1="1581.73" x2="1224.01" y2="1727.87">
  </linearGradient>
  <linearGradient id="id2" gradientUnits="userSpaceOnUse" xlink:href="#id0" x1="1439.01" y1="1581.73" x2="1439.01" y2="1727.87">
  </linearGradient>
  <linearGradient id="id3" gradientUnits="userSpaceOnUse" x1="1224.01" y1="1679.35" x2="1224.01" y2="1630.25">
   <stop offset="0" style="stop-color:#1F1B20"/>
   <stop offset="0.65098" style="stop-color:#434242"/>
   <stop offset="0.85098" style="stop-color:#5B5B5B"/>
   <stop offset="1" style="stop-color:#727271"/>
  </linearGradient>
 </defs>
 <g id="Layer_x0020_1">
  <metadata id="CorelCorpID_0Corel-Layer"/>
  <polygon class="fil0" points="1235,1679 1249,1666 1237,1655 1249,1644 1235,1630 1224,1642 1213,1630 1199,1644 1211,1655 1199,1666 1213,1679 1224,1668 "/>
  <g id="_172643392">
   <path class="fil1" d="M1503 1582l0 60 -114 0c-3,0 -5,-1 -6,-1 -2,-1 -4,-2 -5,-4 -1,-1 -2,-3 -2,-5 -1,-1 -1,-3 -1,-5 0,-2 0,-4 1,-5 0,-2 1,-4 2,-5 2,-1 3,-3 5,-3 1,-1 3,-2 6,-2l95 0 0 -30 -96 0c-6,0 -11,1 -16,2 -4,2 -9,4 -12,7 -4,3 -6,6 -9,10 -2,4 -4,8 -5,12 -1,4 -2,8 -2,13 0,4 1,9 2,13 1,4 3,8 5,12 3,3 6,7 9,10 4,2 8,5 12,6 5,2 10,3 16,3l115 0 0 58 31 0 0 -146 -31 0z"/>
   <path class="fil2" d="M1314 1612c-3,-6 -6,-11 -11,-16 -5,-5 -10,-8 -15,-11 -6,-2 -12,-3 -19,-3l-90 0c-7,0 -13,1 -19,3 -5,3 -10,6 -15,11 -5,5 -8,10 -11,16 -2,5 -4,11 -4,18l0 50c0,6 2,12 4,18 3,6 6,11 11,15 2,3 4,5 7,6 3,2 5,4 8,5 3,1 6,2 9,3 3,1 7,1 10,1l90 0c4,0 7,0 10,-1 3,-1 6,-2 9,-3 3,-1 5,-3 8,-5 3,-1 5,-3 7,-6 5,-4 8,-9 11,-15 2,-6 4,-12 4,-18l0 -50c0,-7 -2,-13 -4,-18l0 0zm-27 70c0,2 0,5 -1,7 -1,2 -3,4 -4,5 -2,2 -4,3 -6,4 -2,1 -4,2 -7,2l-90 0c-3,0 -5,-1 -7,-2 -2,-1 -4,-2 -6,-4 -1,-1 -3,-3 -4,-5 -1,-2 -1,-5 -1,-7l0 -54c0,-3 0,-5 1,-7 1,-3 3,-5 4,-6 2,-2 4,-3 6,-4 2,-1 4,-1 7,-1l90 0c3,0 5,0 7,1 2,1 4,2 6,4 1,1 3,3 4,6 1,2 1,4 1,7l0 54 0 0z"/>
   <path class="fil3" d="M1068 1582l0 60 -115 0c-2,0 -4,-1 -6,-1 -2,-1 -3,-2 -4,-4 -1,-1 -2,-3 -3,-5 0,-1 -1,-3 -1,-5 0,-2 1,-4 1,-5 1,-2 2,-4 3,-5 1,-1 2,-3 4,-3 2,-1 4,-2 6,-2l96 0 0 -30 -96 0c-6,0 -12,1 -16,2 -5,2 -9,4 -12,7 -4,3 -7,6 -9,10 -3,4 -4,8 -5,12 -2,4 -2,8 -2,13 0,4 0,9 2,13 1,4 3,8 5,12 2,3 5,7 9,10 3,2 7,5 12,6 5,2 10,3 16,3l115 0 0 58 30 0 0 -146 -30 0z"/>
  </g>
 </g>
</svg>
