<?xml version="1.0" encoding="UTF-8"?>
<!DOCTYPE svg PUBLIC "-//W3C//DTD SVG 1.1//EN" "http://www.w3.org/Graphics/SVG/1.1/DTD/svg11.dtd">
<!-- Creator: CorelDRAW X6 -->
<svg xmlns="http://www.w3.org/2000/svg" xml:space="preserve" width="210mm" height="297mm" version="1.1" style="shape-rendering:geometricPrecision; text-rendering:geometricPrecision; image-rendering:optimizeQuality; fill-rule:evenodd; clip-rule:evenodd"
viewBox="0 0 21000 29700"
 xmlns:xlink="http://www.w3.org/1999/xlink">
 <defs>
  <style type="text/css">
   <![CDATA[
    .fil0 {fill:#2B2A29;fill-rule:nonzero}
   ]]>
  </style>
 </defs>
 <g id="Layer_x0020_1">
  <metadata id="CorelCorpID_0Corel-Layer"/>
  <path class="fil0" d="M5378 15430c0,69 -21,103 -63,103 -20,0 -35,-8 -45,-23 -12,-17 -18,-44 -18,-80 0,-35 5,-62 16,-79 10,-18 26,-27 47,-27 20,0 36,9 47,27 10,18 16,44 16,79zm-39 0c0,-29 -3,-49 -7,-61 -4,-8 -9,-13 -17,-13 -8,0 -13,5 -17,13 -5,12 -7,32 -7,61 0,28 2,47 7,58 4,9 9,13 17,13 7,0 13,-4 16,-13 5,-11 8,-30 8,-58zm198 -1c0,35 -6,62 -19,80 -12,16 -30,24 -52,24 -15,0 -27,-4 -37,-12 -9,-9 -15,-21 -18,-38l36 -4c2,15 9,22 22,22 9,0 16,-3 21,-10 6,-9 9,-25 9,-46 -10,11 -21,17 -35,17 -16,0 -29,-6 -40,-19 -11,-12 -16,-28 -16,-48 0,-20 5,-37 17,-49 11,-13 26,-19 45,-19 21,0 37,8 48,23 13,17 19,44 19,79zm-42 -31c0,-12 -2,-21 -8,-28 -5,-8 -11,-11 -19,-11 -7,0 -13,3 -17,8 -5,6 -7,16 -7,28 0,13 2,22 7,29 5,6 11,9 19,9 7,0 13,-3 18,-8 5,-7 7,-15 7,-27zm121 24l-37 0 0 -39 37 0 0 39zm0 108l-37 0 0 -39 37 0 0 39zm161 -100c0,69 -21,103 -62,103 -20,0 -35,-8 -46,-23 -12,-17 -18,-44 -18,-80 0,-35 6,-62 16,-79 11,-18 27,-27 48,-27 20,0 36,9 46,27 11,18 16,44 16,79zm-39 0c0,-29 -2,-49 -6,-61 -4,-8 -10,-13 -17,-13 -8,0 -14,5 -17,13 -5,12 -8,32 -8,61 0,28 3,47 8,58 4,9 9,13 17,13 7,0 12,-4 16,-13 5,-11 7,-30 7,-58zm195 0c0,69 -20,103 -62,103 -20,0 -35,-8 -45,-23 -12,-17 -18,-44 -18,-80 0,-35 5,-62 15,-79 11,-18 27,-27 48,-27 20,0 36,9 46,27 11,18 16,44 16,79zm-38 0c0,-29 -3,-49 -7,-61 -4,-8 -10,-13 -17,-13 -8,0 -13,5 -17,13 -5,12 -7,32 -7,61 0,28 2,47 7,58 4,9 9,13 17,13 7,0 12,-4 16,-13 5,-11 8,-30 8,-58zm135 46l-65 0 0 -39 65 0 0 39zm130 54l-37 0 0 -146c-6,6 -12,10 -19,13 -2,1 -8,3 -18,7l-11 -26c11,-4 21,-10 31,-18 12,-10 20,-21 24,-32l30 0 0 202zm185 -101c0,35 -7,62 -20,80 -12,16 -29,24 -51,24 -15,0 -28,-4 -37,-12 -9,-9 -15,-21 -18,-38l36 -4c2,15 9,22 22,22 9,0 15,-3 20,-10 6,-9 9,-25 9,-46 -9,11 -21,17 -35,17 -15,0 -28,-6 -39,-19 -11,-12 -17,-28 -17,-48 0,-20 6,-37 18,-49 11,-13 26,-19 45,-19 20,0 36,8 48,23 12,17 19,44 19,79zm-42 -31c0,-12 -3,-21 -8,-28 -5,-8 -12,-11 -19,-11 -8,0 -13,3 -17,8 -5,6 -7,16 -7,28 0,13 2,22 7,29 4,6 11,9 19,9 7,0 13,-3 18,-8 5,-7 7,-15 7,-27zm121 24l-37 0 0 -39 37 0 0 39zm0 108l-37 0 0 -39 37 0 0 39zm161 -100c0,69 -21,103 -63,103 -19,0 -34,-8 -45,-23 -12,-17 -18,-44 -18,-80 0,-35 5,-62 16,-79 10,-18 26,-27 47,-27 21,0 36,9 47,27 11,18 16,44 16,79zm-39 0c0,-29 -2,-49 -7,-61 -3,-8 -9,-13 -17,-13 -7,0 -13,5 -17,13 -4,12 -7,32 -7,61 0,28 3,47 8,58 3,9 9,13 16,13 7,0 13,-4 17,-13 5,-11 7,-30 7,-58zm195 0c0,69 -21,103 -63,103 -19,0 -34,-8 -45,-23 -12,-17 -18,-44 -18,-80 0,-35 6,-62 16,-79 11,-18 26,-27 47,-27 21,0 36,9 47,27 11,18 16,44 16,79zm-39 0c0,-29 -2,-49 -7,-61 -3,-8 -9,-13 -17,-13 -7,0 -13,5 -16,13 -5,12 -8,32 -8,61 0,28 3,47 8,58 3,9 9,13 16,13 7,0 13,-4 17,-13 5,-11 7,-30 7,-58z"/>
 </g>
</svg>
